<mxfile host="65bd71144e">
    <diagram id="PF-cpJ5AHYmrNrmXafln" name="PÃ¡gina-1">
        <mxGraphModel dx="818" dy="590" grid="1" gridSize="10" guides="1" tooltips="1" connect="1" arrows="1" fold="1" page="1" pageScale="1" pageWidth="850" pageHeight="1100" math="0" shadow="0">
            <root>
                <mxCell id="0"/>
                <mxCell id="1" parent="0"/>
                <mxCell id="6" value="cliente:&lt;div&gt;id&lt;/div&gt;&lt;div&gt;nombre&lt;/div&gt;&lt;div&gt;apellido&lt;br&gt;dni&lt;/div&gt;&lt;div&gt;tipo_cliente&lt;/div&gt;&lt;div&gt;flag_tasa_preferencial&lt;/div&gt;" style="rounded=0;whiteSpace=wrap;html=1;" vertex="1" parent="1">
                    <mxGeometry x="190" y="120" width="190" height="190" as="geometry"/>
                </mxCell>
                <mxCell id="7" value="cotizacion:&lt;div&gt;client&lt;/div&gt;&lt;div&gt;originCurrency&lt;/div&gt;&lt;div&gt;finalCurrency&lt;/div&gt;&lt;div&gt;date&lt;/div&gt;&lt;div&gt;value&lt;br&gt;&lt;/div&gt;" style="rounded=0;whiteSpace=wrap;html=1;" vertex="1" parent="1">
                    <mxGeometry x="440" y="130" width="120" height="130" as="geometry"/>
                </mxCell>
                <mxCell id="12" style="edgeStyle=none;html=1;" edge="1" parent="1" source="8" target="9">
                    <mxGeometry relative="1" as="geometry"/>
                </mxCell>
                <mxCell id="8" value="Actor" style="shape=umlActor;verticalLabelPosition=bottom;verticalAlign=top;html=1;outlineConnect=0;" vertex="1" parent="1">
                    <mxGeometry x="170" y="520" width="30" height="60" as="geometry"/>
                </mxCell>
                <mxCell id="15" style="edgeStyle=none;html=1;entryX=0;entryY=0.5;entryDx=0;entryDy=0;" edge="1" parent="1" source="9" target="10">
                    <mxGeometry relative="1" as="geometry"/>
                </mxCell>
                <mxCell id="9" value="ms-cotizaciones" style="rounded=1;whiteSpace=wrap;html=1;" vertex="1" parent="1">
                    <mxGeometry x="300" y="530" width="120" height="60" as="geometry"/>
                </mxCell>
                <mxCell id="10" value="api-currency-thirdparty" style="rounded=1;whiteSpace=wrap;html=1;" vertex="1" parent="1">
                    <mxGeometry x="510" y="530" width="120" height="60" as="geometry"/>
                </mxCell>
                <mxCell id="11" value="" style="shape=cylinder3;whiteSpace=wrap;html=1;boundedLbl=1;backgroundOutline=1;size=15;" vertex="1" parent="1">
                    <mxGeometry x="320" y="650" width="60" height="80" as="geometry"/>
                </mxCell>
                <mxCell id="14" style="edgeStyle=none;html=1;entryX=0.45;entryY=0.958;entryDx=0;entryDy=0;entryPerimeter=0;startArrow=classic;startFill=1;" edge="1" parent="1" source="11" target="9">
                    <mxGeometry relative="1" as="geometry"/>
                </mxCell>
            </root>
        </mxGraphModel>
    </diagram>
</mxfile>